<?xml version="1.0" encoding="utf-8"?>
<!DOCTYPE svg PUBLIC "-//W3C//DTD SVG 1.1//EN" "http://www.w3.org/Graphics/SVG/1.1/DTD/svg11.dtd">
<svg version="1.1" id="图形" xmlns="http://www.w3.org/2000/svg" xmlns:xlink="http://www.w3.org/1999/xlink" x="0px" y="0px" width="1024px" height="1024px" viewBox="0 0 1024 1024" enable-background="new 0 0 1024 1024" xml:space="preserve">
  <path fill="#272636" d="M994.304 638.944l-447.488-182.272-448.512 182.272 447.488 173.056zM61.44 563.168l446.464-186.368 0-504.832q-53.248 23.552-110.592 49.152-49.152 21.504-111.104 48.128t-124.416 53.248q-22.528 10.24-40.96 27.136t-31.744 36.864-20.48 42.496-7.168 44.032l0 390.144zM1021.952 563.168l0-388.096q0-26.624-10.24-51.712t-26.112-47.104-35.328-38.912-37.888-26.112q-54.272-22.528-113.664-47.104t-109.568-45.056q-58.368-24.576-114.688-47.104l0 504.832z" transform="translate(0, 812) scale(1, -1)"/>
</svg>
