<?xml version="1.0" standalone="no"?><!DOCTYPE svg PUBLIC "-//W3C//DTD SVG 1.1//EN" "http://www.w3.org/Graphics/SVG/1.1/DTD/svg11.dtd"><svg t="1501207722936" class="icon" style="" viewBox="0 0 1024 1024" version="1.1" xmlns="http://www.w3.org/2000/svg" p-id="4026" xmlns:xlink="http://www.w3.org/1999/xlink" width="200" height="200"><defs><style type="text/css"></style></defs><path d="M512 26.897067C244.497067 26.897067 26.897067 244.497067 26.897067 512S244.497067 997.137067 512 997.137067 997.137067 779.502933 997.137067 512 779.502933 26.897067 512 26.897067z m0 925.832533C268.970667 952.7296 71.236267 755.029333 71.236267 512S268.970667 71.236267 512 71.236267 952.7296 268.970667 952.7296 512 755.029333 952.7296 512 952.7296z" fill="#8a8a8a" p-id="4027"></path><path d="M760.183467 489.949867h-225.962667V266.1376a22.186667 22.186667 0 0 0-44.373333 0v223.812267H263.816533a22.186667 22.186667 0 1 0 0 44.373333h225.9968v228.1472a22.186667 22.186667 0 1 0 44.373334 0v-228.1472h225.962666a22.186667 22.186667 0 0 0 0.034134-44.373333z" fill="#8a8a8a" p-id="4028"></path></svg>