<?xml version="1.0" encoding="utf-8"?>
<!-- Generator: Adobe Illustrator 15.0.0, SVG Export Plug-In . SVG Version: 6.00 Build 0)  -->
<!DOCTYPE svg PUBLIC "-//W3C//DTD SVG 1.1//EN" "http://www.w3.org/Graphics/SVG/1.1/DTD/svg11.dtd">
<svg version="1.1" id="Layer_1" xmlns="http://www.w3.org/2000/svg" xmlns:xlink="http://www.w3.org/1999/xlink" x="0px" y="0px"
	 width="64px" height="64px" viewBox="0 0 64 64" enable-background="new 0 0 64 64" xml:space="preserve">
<g>
	<g>
		<path d="M59.927,30.501L54.501,2.579H10.959L4.073,30.556v0.793v8.525v1.538v8.526v1.418v10.064h55.854V51.356v-1.418v-8.526
			v-1.538v-8.525V30.501z M58.508,60.004H5.492v-8.647h53.016V60.004z M58.508,49.938H5.492v-8.526h53.016V49.938z M58.508,39.874
			H5.492v-8.525h53.016V39.874z"/>
	</g>
	<g>
		<path d="M51.568,37.782c1.391,0,2.521-1.13,2.521-2.521s-1.13-2.521-2.521-2.521s-2.521,1.13-2.521,2.521
			S50.178,37.782,51.568,37.782z M51.568,34.158c0.607,0,1.104,0.496,1.104,1.104s-0.496,1.104-1.104,1.104
			c-0.608,0-1.104-0.496-1.104-1.104S50.96,34.158,51.568,34.158z"/>
	</g>
	<g>
		<path d="M51.568,48.096c1.391,0,2.521-1.13,2.521-2.521c0-1.392-1.13-2.522-2.521-2.522s-2.521,1.131-2.521,2.522
			C49.048,46.966,50.178,48.096,51.568,48.096z M51.568,44.471c0.607,0,1.104,0.494,1.104,1.104c0,0.607-0.496,1.104-1.104,1.104
			c-0.608,0-1.104-0.496-1.104-1.104C50.464,44.965,50.96,44.471,51.568,44.471z"/>
	</g>
	<g>
		<path d="M51.568,57.847c1.391,0,2.521-1.13,2.521-2.521s-1.13-2.521-2.521-2.521s-2.521,1.13-2.521,2.521
			S50.178,57.847,51.568,57.847z M51.568,54.222c0.607,0,1.104,0.496,1.104,1.104c0,0.607-0.496,1.104-1.104,1.104
			c-0.608,0-1.104-0.496-1.104-1.104C50.464,54.718,50.96,54.222,51.568,54.222z"/>
	</g>
	<g>
		<rect x="7.947" y="33.448" width="13.11" height="1.813"/>
	</g>
	<g>
		<rect x="7.947" y="42.857" width="13.11" height="1.813"/>
	</g>
	<g>
		<rect x="7.947" y="52.608" width="13.11" height="1.813"/>
	</g>
</g>
</svg>
