<?xml version="1.0" standalone="no"?><!DOCTYPE svg PUBLIC "-//W3C//DTD SVG 1.1//EN" "http://www.w3.org/Graphics/SVG/1.1/DTD/svg11.dtd"><svg t="1503390608552" class="icon" style="" viewBox="0 0 1024 1024" version="1.1" xmlns="http://www.w3.org/2000/svg" p-id="2378" xmlns:xlink="http://www.w3.org/1999/xlink" width="64" height="64"><defs><style type="text/css"></style></defs><path d="M711.374328 288.314475c-5.972015 0-11.458983 2.054799-15.805988 5.490038l-0.260943-0.24457L513.277598 475.588719 334.755692 297.066813l-0.173962 0.195451c-4.681626-5.474688-11.634991-8.947789-19.399839-8.947789-14.104229 0-25.530466 11.425214-25.530466 25.523303 0 8.829086 4.482081 16.609283 11.296277 21.191648l-0.206708 0.233314 72.76628 72.76628-0.379647 0.379647 103.666034 103.671151-97.286744 97.287767 0.376577 0.375553-78.518285 78.520331c-7.076162 4.53734-11.770068 12.463869-11.770068 21.49557 0 14.096043 11.432377 25.52228 25.52535 25.52228 6.260587 0 11.990079-2.254344 16.430204-5.991458l0.514723 0.491187 181.213201-181.215248 179.581028 179.582051 0.034792-0.035816c4.550643 4.206812 10.635221 6.78145 17.321504 6.78145 14.100136 0 25.524327-11.42419 25.524327-25.524327 0-7.29515-3.064802-13.872962-7.971555-18.525935l-81.09804-81.097016 0.379647-0.379647-97.28572-97.287767 103.666034-103.671151-0.381693-0.381693 74.244958-74.243935c1.487887-1.189082 2.838651-2.539846 4.028757-4.027733l1.297552-1.297552-0.195451-0.183172c2.822278-4.106528 4.476965-9.077749 4.476965-14.437827C736.899678 299.739688 725.473441 288.314475 711.374328 288.314475zM513.192663 1.592264c-282.053887 0-510.693238 228.64549-510.693238 510.701424 0 282.048771 228.639351 510.686075 510.693238 510.686075 282.042631 0 510.690168-228.637304 510.690168-510.686075C1023.882831 230.237755 795.236318 1.592264 513.192663 1.592264zM513.192663 971.912691c-253.845429 0-459.620026-205.780737-459.620026-459.627189 0-253.844405 205.773574-459.626165 459.620026-459.626165 253.842359 0 459.620026 205.78176 459.620026 459.626165C972.813712 766.132978 767.035022 971.912691 513.192663 971.912691z" p-id="2379" fill="#CC3333"></path></svg>