<?xml version="1.0" standalone="no"?><!DOCTYPE svg PUBLIC "-//W3C//DTD SVG 1.1//EN" "http://www.w3.org/Graphics/SVG/1.1/DTD/svg11.dtd"><svg t="1503384348520" class="icon" style="" viewBox="0 0 1024 1024" version="1.1" xmlns="http://www.w3.org/2000/svg" p-id="4758" xmlns:xlink="http://www.w3.org/1999/xlink" width="64" height="64"><defs><style type="text/css"></style></defs><path d="M504.323837 16.526035c-276.778962 0-503.232085 226.454135-503.232085 503.233097 0 276.773903 226.454135 503.228038 503.232085 503.228038 276.773903 0 503.229049-226.455146 503.229049-503.228038C1007.552887 242.98017 781.09774 16.526035 504.323837 16.526035L504.323837 16.526035zM504.323837 960.085435c-245.324554 0-440.329339-195.000738-440.329339-440.325292S258.999284 79.429793 504.323837 79.429793c245.325566 0 440.326304 195.005797 440.326304 440.330351S749.649403 960.085435 504.323837 960.085435L504.323837 960.085435zM504.323837 960.085435" p-id="4759" fill="#009966"></path><path d="M730.778984 356.208755 428.838114 658.144566 277.868691 507.176154c-18.869407-18.870419-44.032327-18.870419-56.615304 0-12.57893 18.870419-18.870419 44.032327 0 56.616316l176.130319 176.129307c18.874466 18.870419 44.031315 18.870419 56.617328 0L787.390241 406.53257c18.870419-18.875478 18.870419-44.032327 0-56.615304C774.810299 337.338336 749.649403 337.338336 730.778984 356.208755L730.778984 356.208755zM730.778984 356.208755" p-id="4760" fill="#009966"></path></svg>