<?xml version="1.0" standalone="no"?><!DOCTYPE svg PUBLIC "-//W3C//DTD SVG 1.1//EN" "http://www.w3.org/Graphics/SVG/1.1/DTD/svg11.dtd"><svg t="1503384571350" class="icon" style="" viewBox="0 0 1024 1024" version="1.1" xmlns="http://www.w3.org/2000/svg" p-id="6572" xmlns:xlink="http://www.w3.org/1999/xlink" width="64" height="64"><defs><style type="text/css"></style></defs><path d="M512 0C229.231678 0 0 229.231678 0 512s229.231678 512 512 512 512-229.231678 512-512S794.768322 0 512 0z m0 949.66264C270.317673 949.66264 74.33736 753.716689 74.33736 512S270.317673 74.33736 512 74.33736 949.66264 270.283311 949.66264 512 753.682327 949.674094 512 949.674094z" p-id="6573" fill="#FFD700"></path><path d="M512 282.333065a36.985414 36.985414 0 0 0-36.882327 36.882326v301.587473a36.882327 36.882327 0 0 0 73.764654 0v-301.587473a36.985414 36.985414 0 0 0-36.882327-36.882326zM512 692.7234a36.985414 36.985414 0 0 0-36.882327 36.882327v35.015302a36.882327 36.882327 0 0 0 73.764654 0v-35.026756a36.985414 36.985414 0 0 0-36.882327-36.870873z" p-id="6574" fill="#FFD700"></path></svg>